<?xml version="1.0" encoding="UTF-8"?> <svg xmlns="http://www.w3.org/2000/svg" xmlns:xlink="http://www.w3.org/1999/xlink" version="1.1" id="Capa_1" x="0px" y="0px" viewBox="0 0 512 512" style="enable-background:new 0 0 512 512;" xml:space="preserve"> <style type="text/css"> .st0{fill:#FFFFFF;} </style> <g> <circle class="st0" cx="256" cy="50" r="50"></circle> <path class="st0" d="M310.5,108.5C296.2,121.8,277.1,130,256,130s-40.2-8.2-54.5-21.5c-21.2,11-36.5,31.9-39.8,56.5h188.7 C347,140.4,331.7,119.5,310.5,108.5L310.5,108.5z"></path> <circle class="st0" cx="76" cy="367" r="50"></circle> <circle class="st0" cx="436" cy="367" r="50"></circle> <path class="st0" d="M129.8,426.1C115.6,439.1,96.7,447,76,447s-39.6-7.9-53.8-20.9C9.4,435.2,1,450.1,1,467v30c0,8.3,6.7,15,15,15 h120c8.3,0,15-6.7,15-15v-30C151,450.1,142.6,435.2,129.8,426.1z"></path> <path class="st0" d="M489.8,426.1C475.6,439.1,456.7,447,436,447s-39.6-7.9-53.8-20.9c-12.8,9.1-21.2,24-21.2,40.9v30 c0,8.3,6.7,15,15,15h120c8.3,0,15-6.7,15-15v-30C511,450.1,502.6,435.2,489.8,426.1z"></path> <path class="st0" d="M309.8,426.1C295.6,439.1,276.7,447,256,447s-39.6-7.9-53.8-20.9c-12.8,9.1-21.2,24-21.2,40.9v30 c0,8.3,6.7,15,15,15h120c8.3,0,15-6.7,15-15v-30C331,450.1,322.6,435.2,309.8,426.1z"></path> <path class="st0" d="M356,367c0-35.4,23.1-65.5,55-76v-66h5c8.3,0,15-6.7,15-15s-6.7-15-15-15h-15v-60c0-4-1.6-7.8-4.4-10.6l-20-20 c-5.9-5.9-15.4-5.9-21.2,0s-5.9,15.4,0,21.2l15.6,15.6V195H96c-8.3,0-15,6.7-15,15s6.7,15,15,15h5v66c31.9,10.5,55,40.6,55,76 c0,12.6-2.9,24.5-8.2,35.2c7.1,5.1,13.2,11.3,18.2,18.2c5-6.9,11.1-13.1,18.2-18.2c-5.2-10.6-8.2-22.6-8.2-35.2 c0-44.1,35.9-80,80-80s80,35.9,80,80c0,12.6-2.9,24.5-8.2,35.2c7.1,5.1,13.2,11.3,18.2,18.2c5-6.9,11.1-13.1,18.2-18.2 C358.9,391.5,356,379.6,356,367L356,367z"></path> <circle class="st0" cx="256" cy="367" r="50"></circle> </g> </svg> 