<?xml version="1.0" encoding="UTF-8"?> <svg xmlns="http://www.w3.org/2000/svg" xmlns:xlink="http://www.w3.org/1999/xlink" version="1.1" id="Layer_1" x="0px" y="0px" viewBox="0 0 512 512" style="enable-background:new 0 0 512 512;" xml:space="preserve"> <style type="text/css"> .st0{fill-rule:evenodd;clip-rule:evenodd;fill:#FFFFFF;} </style> <path class="st0" d="M256,512C114.8,512,0,397.2,0,256S114.8,0,256,0s256,114.8,256,256S397.2,512,256,512L256,512z M358.1,226.6 c0-7,5.4-12.7,12.2-13.2L256,121.3l-114.3,92.2c6.8,0.5,12.2,6.2,12.2,13.2v167.8h49.4V282.4c0-7.3,5.9-13.2,13.2-13.2h78.9 c7.3,0,13.2,5.9,13.2,13.2v112.1h49.4L358.1,226.6L358.1,226.6z M282.2,394.5h-52.4v-98.9h52.4V394.5z M420.2,231.1 c-1.9,5.3-6.9,8.8-12.5,8.8h-23.2v167.8c0,7.3-5.9,13.2-13.2,13.2H140.7c-7.3,0-13.2-5.9-13.2-13.2V239.9h-23.2 c-5.6,0-10.6-3.5-12.5-8.8c-1.9-5.3-0.2-11.2,4.2-14.7L247.7,94c4.9-3.9,11.8-3.9,16.6,0L416,216.3 C420.4,219.9,422.1,225.8,420.2,231.1L420.2,231.1z"></path> </svg> 