<?xml version="1.0" encoding="UTF-8"?> <svg xmlns="http://www.w3.org/2000/svg" xmlns:xlink="http://www.w3.org/1999/xlink" version="1.1" id="icons" x="0px" y="0px" viewBox="0 0 512 512" style="enable-background:new 0 0 512 512;" xml:space="preserve"> <style type="text/css"> .st0{fill:#FFFFFF;} </style> <path class="st0" d="M64,147.5c-12.8-4.5-21.3-16.6-21.3-30.2c0-5.9-4.8-10.7-10.7-10.7s-10.7,4.8-10.7,10.7 c0,21.2,12.6,40.4,32,48.9C56.5,159.7,60.1,153.5,64,147.5z"></path> <path class="st0" d="M480,202.7c-14.5,0.1-27.6-8.9-32.6-22.5c-7.3-20.3-17.9-39.2-31.4-56v-3.8l30.5-50.9c1.7-2.6,2.3-5.8,1.5-8.7 c-0.9-2.9-3.1-5.3-5.9-6.5c-3-1.3-70.6-29.9-113.3,7.9c-23.7-6.8-48.3-9.8-72.9-8.7c-60.8,0.6-118.9,25.4-161.4,69 c-7.8,8.4-15,17.4-21.3,26.9c-4.3,6.3-8.1,12.9-11.5,19.7c-13.2,24.5-19.8,52.1-19.1,80c2.6,44.6,21.6,86.7,53.3,118.2v70.2 c0,5.9,4.8,10.7,10.7,10.7h70.9c4.8,0.2,9.1-2.7,10.7-7.3c3.7-11.4,12.3-24.7,25.1-24.7H288c7.1-0.1,13.9,2.4,19.3,7 c6.5,5.9,12.2,12.7,16.7,20.2c2,3,5.3,4.8,8.9,4.8h61.8c2.8,0,5.6-1.1,7.6-3.1c2-2,3.1-4.7,3.1-7.6v-71c4.5-5.9,14.6-19.4,19.3-26.1 c5.2-7.6,13.2-12.8,22.3-14.4l34.9-5.8c5.2-0.9,8.9-5.4,8.9-10.7v-96C490.7,207.4,485.9,202.7,480,202.7z M339.5,133.9 c-2,3-5.3,4.8-8.9,4.8c-2.1,0-4.1-0.6-5.9-1.8c-20.8-12.4-44.6-19.1-68.8-19.5c-24.3,0.3-48,7-68.8,19.5c-5.2,2.8-11.7,0.8-14.4-4.4 c-2.4-4.5-1.3-10.1,2.7-13.3c24.3-14.9,52.1-22.9,80.5-23.1c28.4,0.3,56.3,8.3,80.5,23.1C341.4,122.4,342.7,129,339.5,133.9z M378.7,192c-8.8,0-16-7.2-16-16s7.2-16,16-16s16,7.2,16,16S387.5,192,378.7,192z"></path> </svg> 